<?xml version="1.0" encoding="UTF-8" standalone="no"?>
<!-- Created with Inkscape (http://www.inkscape.org/) -->

<svg
   width="209.25903mm"
   height="83.584984mm"
   viewBox="0 0 209.25903 83.584984"
   version="1.1"
   id="svg1"
   inkscape:export-filename="MassageLogo.svg"
   inkscape:export-xdpi="96"
   inkscape:export-ydpi="96"
   xmlns:inkscape="http://www.inkscape.org/namespaces/inkscape"
   xmlns:sodipodi="http://sodipodi.sourceforge.net/DTD/sodipodi-0.dtd"
   xmlns="http://www.w3.org/2000/svg"
   xmlns:svg="http://www.w3.org/2000/svg">
  <sodipodi:namedview
     id="namedview1"
     pagecolor="#ffffff"
     bordercolor="#000000"
     borderopacity="0.25"
     inkscape:showpageshadow="2"
     inkscape:pageopacity="0.0"
     inkscape:pagecheckerboard="0"
     inkscape:deskcolor="#d1d1d1"
     inkscape:document-units="mm" />
  <defs
     id="defs1" />
  <g
     inkscape:label="Layer 1"
     inkscape:groupmode="layer"
     id="layer1"
     transform="translate(-0.42670282,-17.290775)">
    <path
       style="fill:#8fc028;stroke:none;stroke-width:0.315845"
       d="M 38.834421,18.425442 H 38.522252 C 36.878428,17.960744 35.154766,18.763576 33.527551,19.113214 28.344682,20.22683 23.474947,22.619874 19.16779,25.722008 3.4774185,37.022678 -5.4338105,60.323915 4.8080256,78.503448 h 0.3121695 l 0.6243368,-0.639131 c 0.2390483,1.606833 0.7872069,2.420238 2.1851822,3.195646 l -0.3121696,1.278252 0.9365063,-0.319561 -0.3121682,1.597812 1.2486745,1.278264 0.6243379,-0.639133 3.433857,2.876076 -1.560844,-2.556515 c 3.164101,0.999636 5.634214,3.942731 7.804218,6.391281 l -0.936506,-0.31956 0.936506,0.958692 1.873014,1.278251 0.936505,-0.31956 5.619037,4.473887 2.497351,-0.31956 v 0.31956 l -0.936506,0.319572 1.560844,0.639119 0.312168,-0.958691 c 18.607128,4.245521 38.301879,-2.376964 44.640134,-22.369467 l -5.619036,6.710841 1.560842,-4.154327 c -4.980296,4.302029 -8.412741,9.0808 -14.672046,11.795127 -15.136852,6.564056 -32.470859,1.551782 -41.177302,-13.073389 -2.381288,-4.000103 -2.915471,-8.645858 -4.087054,-13.102111 1.303119,-2.020662 0.901109,-6.159419 1.564737,-8.628229 1.883238,-7.005954 6.011112,-13.157092 12.132057,-17.044035 1.812299,-1.150847 4.066138,-2.93295 6.282006,-2.768925 h 0.312169 c 6.282059,-5.052243 14.885152,-1.963901 21.851813,-1.597819 0.506504,1.770934 2.470289,2.835417 4.058195,3.515202 0.267407,2.105458 1.521355,3.244246 3.121687,4.473895 l 0.31217,-0.958691 0.312169,0.958691 c 1.981924,0.219757 4.658303,0.990998 6.294355,-0.59416 1.691905,-1.639266 0.944002,-3.766276 1.046022,-5.788956 0.06862,-1.360524 1.126229,-2.463901 1.030246,-3.842548 -0.17476,-2.510285 -4.73849,-7.891581 -7.121948,-7.989476 -1.821851,-4.637655 -8.68551,-0.969847 -10.613739,-4.473893 l -0.936506,0.319563 c -2.648343,-1.810262 -10.259858,-1.183387 -13.111089,0 M 195.54315,41.114475 c 1.39894,-0.04731 3.84913,-0.777843 4.96523,0.351729 2.10254,2.127963 -0.74963,5.909901 2.83898,7.317804 l 0.93652,-7.989096 c 1.37599,-6.39e-4 3.89035,0.396402 4.93534,-0.75243 2.04189,-2.244807 -3.21473,-3.057293 -4.31101,-3.082336 -0.22074,-1.869392 -0.43765,-7.301996 -3.09322,-3.153549 -0.67899,1.060683 -0.47221,2.53842 -1.30611,3.487723 -1.53319,1.745381 -3.78659,1.438632 -4.96573,3.820155 M 29.781527,39.836221 c -2.519669,3.273452 -4.86032,6.392252 -5.830471,10.545606 -2.725953,11.670232 5.12674,25.464461 13.94686,32.275947 -1.788013,-5.319466 -4.620329,-10.209029 -4.953735,-15.978184 -0.07992,-1.382919 -0.201815,-7.121481 2.160966,-6.826549 2.09277,0.261235 3.646458,4.840985 4.407848,6.506976 0.767886,1.680208 1.382447,3.424961 2.130946,5.11303 C 46.842349,61.19585 37.938378,45.844184 29.781527,39.836221 m 28.407358,0 C 50.738746,47.551198 41.815051,60.073778 46.63864,71.473047 l 6.867713,-12.46299 c 3.153564,9.472936 -2.312072,18.924784 -6.867713,26.843365 3.200407,-1.853563 5.749787,-4.8327 8.112234,-7.669533 8.549466,-10.266267 16.201978,-27.815128 3.438011,-38.347668 m 10.925907,35.471594 c 4.10427,-2.275558 1.165745,-10.470242 5.352817,-11.901571 8.506608,-2.907912 3.7167,10.446412 9.037526,12.492185 1.751215,0.673312 3.28183,-0.998235 3.816342,-2.535379 0.708383,-2.037149 1.425403,-4.533987 1.651394,-6.68346 0.160198,-1.523749 -0.274689,-3.243621 0.581955,-4.614125 1.535158,-2.456013 4.266831,-3.967381 5.782148,-6.570615 l -6.24338,1.917383 C 87.892256,52.779787 88.844004,44.0233 84.919154,40.712991 78.930752,35.662249 75.487511,45.551983 74.486996,49.7427 c -0.557148,2.33363 -0.998932,6.256565 -2.624366,8.071018 -1.090319,1.217101 -3.905065,0.232696 -4.52286,1.747989 -0.860069,2.109521 2.704516,2.459179 3.059957,4.048934 0.823066,3.681351 -2.043136,7.868615 -1.284935,11.697174 m 60.248578,-16.93689 c 0.49391,2.502539 2.07762,3.107236 4.37036,3.515207 v 9.586915 h 0.62433 c 0.75845,-2.443138 0.20023,-6.426621 1.69189,-8.459276 1.05411,-1.436425 4.69465,-1.335852 5.78605,-0.0061 1.69729,2.067247 2.10491,6.516627 2.82364,9.104967 -0.67914,2.081016 3.83278,5.79249 5.22673,3.355777 2.23837,-3.912814 -0.49081,-8.637971 0.3499,-12.622783 0.78292,-3.710954 4.15473,-5.098669 5.66144,-8.308991 -1.49869,0.501275 -3.94453,1.415663 -5.41215,0.424736 -1.22613,-0.827888 -1.3277,-2.9394 -1.69487,-4.259512 -1.28804,-4.630965 -2.44022,-11.69797 -8.80825,-10.706239 -2.64176,0.411422 -3.23205,3.361528 -3.80798,5.593227 -0.78212,3.030708 -0.20125,9.660862 -2.65829,11.79792 -1.05815,0.920343 -2.84063,0.883711 -4.1528,0.984636 m 49.01049,-15.33961 c -1.08637,3.877607 2.44256,4.143321 2.3274,7.360502 -0.0602,1.681826 -0.59633,3.94559 -1.5492,5.330304 -0.73043,1.061451 -2.4605,1.533798 -2.43076,3.017798 0.028,1.398814 1.1567,2.468985 1.37911,3.824343 0.50287,3.064626 -0.86614,6.9875 1.88858,9.289182 2.63321,2.200153 5.79019,0.847803 8.37427,-0.618104 3.96821,-2.251111 8.20172,-3.803848 11.23807,-7.43237 -3.64427,0.128582 -9.21278,5.813797 -12.68693,3.9365 -1.54143,-0.832924 -1.37727,-3.070108 -1.35222,-4.575631 0.0849,-5.094973 3.57715,-7.871514 8.42013,-7.989093 v 0.31956 c -1.51411,0.195048 -3.35495,0.451391 -4.51004,1.582328 -1.45633,1.425856 0.0879,3.006891 1.70603,2.987204 3.00647,-0.03659 4.90523,-3.296341 8.11088,-3.29128 -1.90493,-3.078376 -6.22898,-5.837177 -9.62777,-3.431992 -1.51947,1.075246 -2.36471,2.93137 -3.48332,4.390683 0.0773,-2.010964 0.46074,-7.994222 1.8786,-9.361109 0.92853,-0.895143 2.56754,-0.96382 3.74044,-1.316444 2.28756,-0.687762 4.38446,-1.760371 6.55554,-2.744126 v -0.639092 l -0.31218,-0.319564 -9.66642,1.339704 -3.23843,-1.66636 -2.71814,0.893012 -4.04364,-0.88592 M 106.88721,61.56656 c -0.49923,3.392228 -7.839936,8.585504 -8.116387,2.876075 -2.298514,1.462838 -1.958612,5.114588 0.659229,6.097762 4.190508,1.573811 9.988308,0.266706 12.929368,-3.155537 3.41961,-3.979062 -1.45664,-8.031933 -4.84782,-9.574765 -1.04573,-0.475776 -3.24875,-0.809396 -3.58046,-2.157349 -0.45401,-1.844951 2.40474,-4.092109 3.58005,-5.07205 0.96906,-0.80798 1.94852,-1.376443 3.12205,-1.796688 l -0.62435,2.236947 c 2.74003,-0.34956 3.10335,-2.943112 1.75711,-5.087625 -1.33664,-2.129244 -3.41905,-3.033379 -5.81529,-2.329302 -5.2896,1.554215 -12.840999,10.057484 -7.591631,15.484221 2.041671,2.110656 5.797341,2.262381 8.528131,2.478311 m 12.17459,4.473898 0.62434,-0.958692 h -2.49735 c -0.91137,6.125795 8.63841,6.415618 11.50135,2.439189 2.03184,-2.822086 -1.71245,-7.43476 -4.02567,-8.7659 -0.95292,-0.548391 -3.00005,-1.042985 -3.12794,-2.401338 -0.15687,-1.666342 2.43992,-3.416781 3.56476,-4.273338 0.93956,-0.715449 1.88554,-1.103718 3.0134,-1.378988 v 0.958692 c 2.73956,-0.65199 1.07817,-4.049941 -0.47619,-5.33324 -1.80193,-1.487676 -4.82298,-0.81698 -6.64596,0.317011 -4.2956,2.672093 -8.82595,8.643906 -3.98479,13.107285 1.38241,1.274544 5.49569,1.510753 6.13485,3.278622 0.7473,2.067042 -2.76104,3.036712 -4.0808,3.010697 m 46.82532,0.639132 c 1.18716,2.542371 3.24956,3.650406 5.9312,3.834766 l 1.24867,-15.339066 2.80951,-2.556516 -10.30155,1.278256 c 0.0321,1.965945 1.40017,2.982926 1.56957,4.612285 0.27119,2.608921 -3.12137,5.68171 -5.00344,6.892011 -0.69003,-4.545025 -0.6239,-17.118295 5.61905,-17.576009 l -0.62435,1.278255 c 2.58749,-0.49334 2.37536,-2.460383 -0.007,-3.339516 -1.75297,-0.646713 -3.41851,-0.320021 -4.83666,0.906216 -4.0916,3.537885 -6.67253,11.124714 -6.69987,16.494111 -0.0139,2.730439 0.67701,6.395484 4.05221,6.59174 2.30246,0.133885 4.35554,-2.023573 6.24322,-3.076533 M 139.9771,46.227498 c 1.22375,4.568814 3.64887,11.103475 -2.80951,11.184735 0.19198,-3.434308 0.94944,-8.279822 2.80951,-11.184735 m -60.24857,0.958691 c 0.148768,2.980787 0.930373,6.585114 0.161553,9.516763 -0.384991,1.468045 -2.687969,2.271534 -3.848723,1.174321 -0.794069,-0.750612 -0.167755,-2.179778 0.123323,-3.022061 0.891742,-2.580414 1.762311,-5.209557 2.939509,-7.669023 H 79.72853 M 77.43929,70.301311 77.647407,70.40784 77.43929,70.301311 M 4.8080256,70.514356 c 1.1035649,2.802338 2.2966237,8.349898 5.6190384,8.947783 l -0.9365069,0.639134 3.1216879,3.195634 -0.624337,1.278251 C 8.6794006,82.216444 3.4477263,74.893622 4.8080256,70.514356 m 72.1109864,0.639119 -0.624339,2.236956 0.624339,-2.236956 m -3.433857,2.236956 -0.624337,1.917384 h 0.312168 l 0.312169,-1.917384 m -64.9311042,7.669532 -0.3121682,0.31956 0.3121682,-0.31956 m 2.8095182,4.793459 0.31217,1.278251 h 0.312169 l -0.624339,-1.278251 m 2.185183,0 2.185181,2.236942 -2.185181,-2.236942 m -0.624338,1.917382 0.624338,0.63912 v -0.63912 h -0.624338 m 2.185181,0.63912 0.312169,0.319572 -0.312169,-0.319572 m -2.185181,0.639132 v 0.31956 l 1.873013,0.319572 v -0.639132 h -1.873013 m 3.433857,0.639132 1.248675,1.917383 -0.624338,-1.917383 h -0.624337 m -1.248676,0.319559 v 0.958692 l 0.624338,-0.958692 h -0.624338 m 53.380859,0.31956 0.31217,0.319572 -0.31217,-0.319572 m -49.947001,0.958692 0.312167,0.958692 -0.936506,1.597823 1.873012,0.958692 1.248676,-0.31956 v -0.639132 l -2.497349,-2.556515 m 47.969934,0.745647 0.20811,0.106529 -0.20811,-0.106529 m -48.906441,0.213045 0.312168,0.319571 -0.312168,-0.319571 m 4.370363,0.95869 0.312168,0.319573 -0.312168,-0.319573 m 40.061657,1.491297 0.104062,0.213043 -0.104062,-0.213043 m -40.061657,0.106528 1.873013,1.27825 -0.312171,0.958693 h 1.873014 l -0.312169,-1.597812 h -0.312169 l -0.936505,0.319559 v -0.95869 h -1.873013 m 38.084588,0.639131 v 0.639119 h 0.624339 v -0.639119 h -0.624339 m -1.560843,0.958692 v 0.63912 h 0.624336 v -0.63912 h -0.624336 m -32.465552,0.958692 0.312168,0.639119 h 0.312169 l 0.312169,-0.639119 h -0.936506 m 1.248674,0 0.624338,1.597811 h 0.312168 0.31217 l 0.312168,-1.597811 -0.624338,0.639119 h -0.312168 l -0.624338,-0.639119 m 28.719528,0 v 0.639119 h 0.624338 v -0.639119 h -0.624338 m -1.873013,0.639119 v 0.958692 l 0.624338,-0.958692 h -0.624338 m -24.349164,0.319571 0.312168,1.278253 1.248676,-0.31956 -1.560844,-0.958693 m 22.684264,0.426077 0.208112,0.106527 -0.208112,-0.106527 m 4.786588,-0.106528 0.312169,0.319559 -0.312169,-0.319559 m -20.603139,0.319559 0.624337,0.639132 V 98.955519 H 36.64924 m 15.088156,0.213044 0.104063,0.213044 -0.104063,-0.213044 m -18.209845,0.106529 0.624339,0.958688 -0.624339,-0.958688 m 1.873014,0.319559 0.312167,0.31956 -0.312167,-0.31956 m 0.936506,0.31956 0.312169,0.319569 -0.312169,-0.319569 m 4.058194,0 v 0.958689 l 0.624337,-0.31956 v -0.31956 l -0.624337,-0.319569 m 2.809519,0.319569 v 0.63912 c 0.997123,-0.005 1.645383,0.12873 1.873012,-0.958689 z"
       id="path1" />
  </g>
</svg>
